<svg xmlns="http://www.w3.org/2000/svg" width="768" height="1024" fill="none" viewBox="0 0 768 1024"><g clip-path="url(#a)"><path fill="url(#b)" d="M0 0h768v1024H0z"/><path fill="url(#c)" d="M0 701h768v354H0z"/><path fill="url(#d)" d="M800.611 744.558c-394.747 1.219-787.751 18.66-934.91 27.228-113.583 49.005-276.68 133.32-20.4 78.537 256.279-54.783 758.957-93.948 978.261-98.588 14.875-4.132 31.11 1.601-22.951-7.177Z" opacity=".5"/><path fill="url(#e)" d="M-135.093 861.79c526.912 2.58 1051.498 39.488 1247.923 57.62 151.62 103.7 369.32 341.42 27.23 225.49C797.98 1028.98 127.001 921.058-165.728 911.24c-19.855-8.744-41.526-30.874 30.635-49.45Z" opacity=".25"/><g clip-path="url(#f)"><path fill="url(#g)" d="M0 0h768v731H0z"/><circle cx="101.5" cy="103.5" r="4.5" fill="#5DA9EF"/><circle cx="707.04" cy="322.848" r="4.5" fill="#5DA9EF" transform="rotate(-15 707.04 322.848)"/><circle cx="575.573" cy="380.851" r="1.5" fill="#5DA9EF" transform="rotate(-15 575.573 380.851)"/><circle cx="411.837" cy="496.158" r="1.5" fill="#5DA9EF" transform="rotate(-15 411.837 496.158)"/><circle cx="657.177" cy="435.691" r="1.5" fill="#5DA9EF" transform="rotate(-47.974 657.177 435.691)"/><circle cx="390.76" cy="230.9" r="1.5" fill="#5DA9EF" transform="rotate(-62.974 390.76 230.9)"/><circle cx="582.118" cy="416.5" r="1.5" fill="#5DA9EF" transform="rotate(-47.974 582.118 416.5)"/><circle cx="313.292" cy="231.79" r="1.5" fill="#5DA9EF" transform="rotate(-62.974 313.292 231.79)"/><circle cx="299.5" cy="191.5" r="1.5" fill="#5DA9EF"/><circle cx="111.5" cy="260.5" r="1.5" fill="#5DA9EF"/><circle cx="757.334" cy="471.91" r="1.5" fill="#5DA9EF" transform="rotate(-15 757.334 471.91)"/><circle cx="124.765" cy="352.118" r="1.5" fill="#5DA9EF" transform="rotate(-47.974 124.765 352.118)"/><circle cx="562.171" cy="65.716" r="4.5" fill="#5DA9EF" transform="rotate(-15 562.171 65.716)"/><circle cx="472.391" cy="606.236" r="4.5" fill="#5DA9EF" transform="rotate(-15 472.391 606.236)"/><circle cx="246.5" cy="625.5" r="4.5" fill="#5DA9EF"/><circle cx="43.203" cy="520.533" r="4.5" fill="#5DA9EF" transform="rotate(-15 43.203 520.533)"/><path fill="url(#h)" d="M-120.952-76.32C640.004-38.835 1395.67 41.5 1678.38 76.983c213.15 139.757 514.21 451.689 26.62 284.234C1217.41 193.763 254.291 14.96-167.99-16.369c-28.188-12.243-58.243-41.374 47.038-59.951Z" opacity=".5"/><path fill="url(#i)" d="M-153.093 482.845c526.912.657 1051.498 10.053 1247.923 14.669 151.62 26.401 369.32 86.92 27.23 57.407-342.08-29.513-1013.059-56.987-1305.788-59.487-19.855-2.225-41.526-7.859 30.635-12.589Z" opacity=".5"/><path fill="url(#j)" d="M1138.56 411.685C573.858 390.988 11.428 382.181-199.2 380.364c-163.16 29.417-398.026 102.172-30.661 76.356 367.365-25.816 1087.148-35.408 1400.921-26.791 21.34-2.19 44.71-8.906-32.5-18.244Z" opacity=".5"/><path fill="#151278" d="M-62.04 499-187 590.105V731h754l-28.593-34.959-56.656-24.895-93.191 4.238-81.012-85.279-72.011 17.479-57.186 25.955-129.726-95.872-30.71 8.475L-62.04 499Z"/><path fill="#151278" d="M265.05 700.253 202 731h625V499l-116.593 50.313-20.517-5.191-74.559 67.484-78.063-15.174L451.7 649.94l-26.021-3.594-86.069 58.699-74.56-4.792Z"/></g></g><defs><linearGradient id="b" x1="384" x2="384" y1="0" y2="1024" gradientUnits="userSpaceOnUse"><stop stop-color="#190131"/><stop offset="1" stop-color="#282B96"/></linearGradient><linearGradient id="c" x1="384" x2="384" y1="701" y2="1055" gradientUnits="userSpaceOnUse"><stop stop-color="#3522A0"/><stop offset=".31" stop-color="#2C187F"/><stop offset="1" stop-color="#190334"/></linearGradient><linearGradient id="d" x1="273.5" x2="273.5" y1="744.558" y2="868.17" gradientUnits="userSpaceOnUse"><stop stop-color="#3931C1"/><stop offset="1" stop-color="#3931C1" stop-opacity="0"/></linearGradient><linearGradient id="e" x1="568.5" x2="568.5" y1="861.79" y2="1123.37" gradientUnits="userSpaceOnUse"><stop stop-color="#3931C1"/><stop offset="1" stop-color="#3931C1" stop-opacity="0"/></linearGradient><linearGradient id="g" x1="384" x2="384" y1="0" y2="731" gradientUnits="userSpaceOnUse"><stop stop-color="#1A0337"/><stop offset=".335" stop-color="#131381"/><stop offset="1" stop-color="#35B6FF"/></linearGradient><linearGradient id="h" x1="-12.913" x2="1516.18" y1="-89.476" y2="343.21" gradientUnits="userSpaceOnUse"><stop stop-color="#4531C1"/><stop offset="1" stop-color="#7931C1" stop-opacity="0"/></linearGradient><linearGradient id="i" x1="-78.858" x2="609.273" y1="479.191" y2="1029.97" gradientUnits="userSpaceOnUse"><stop stop-color="#7966FF"/><stop offset="0" stop-color="#66C8FF"/><stop offset="1" stop-color="#3A88E1"/></linearGradient><linearGradient id="j" x1="1059.09" x2="191.399" y1="403.713" y2="925.996" gradientUnits="userSpaceOnUse"><stop stop-color="#2772CB"/><stop offset="1" stop-color="#45A0E8"/></linearGradient><clipPath id="a"><path fill="#fff" d="M0 0h768v1024H0z"/></clipPath><clipPath id="f"><path fill="#fff" d="M0 0h768v731H0z"/></clipPath></defs></svg>