<svg xmlns="http://www.w3.org/2000/svg" width="375" height="812" fill="none" viewBox="0 0 375 812"><g clip-path="url(#a)"><path fill="url(#b)" d="M0 0h375v812H0z"/><path fill="url(#c)" d="M0 701h375v354H0z"/><path fill="url(#d)" d="M420.626 744.558c-257.337 1.219-513.538 18.66-609.472 27.228-74.045 49.005-180.369 133.32-13.299 78.537 167.07-54.783 494.767-93.948 637.733-98.588 9.697-4.132 20.281 1.601-14.962-7.177Z" opacity=".5"/><g clip-path="url(#e)"><path fill="url(#f)" d="M0 0h375v731H0z"/><circle cx="215.837" cy="496.158" r="1.5" fill="#5DA9EF" transform="rotate(-15 215.837 496.158)"/><circle cx="194.76" cy="230.9" r="1.5" fill="#5DA9EF" transform="rotate(-62.974 194.76 230.9)"/><circle cx="117.292" cy="231.79" r="1.5" fill="#5DA9EF" transform="rotate(-62.974 117.292 231.79)"/><circle cx="103.5" cy="191.5" r="1.5" fill="#5DA9EF"/><circle cx="366.171" cy="65.716" r="4.5" fill="#5DA9EF" transform="rotate(-15 366.171 65.716)"/><circle cx="276.391" cy="606.236" r="4.5" fill="#5DA9EF" transform="rotate(-15 276.391 606.236)"/><circle cx="50.5" cy="625.5" r="4.5" fill="#5DA9EF"/><path fill="url(#g)" d="M-120.952-76.32C640.004-38.835 1395.67 41.5 1678.38 76.983c213.15 139.757 514.21 451.689 26.62 284.234C1217.41 193.763 254.291 14.96-167.99-16.369c-28.188-12.243-58.243-41.374 47.038-59.951Z" opacity=".5"/><path fill="url(#h)" d="M-166.108 482.845c389.502.657 777.285 10.053 922.489 14.669 112.074 26.401 273.009 86.92 20.129 57.407-252.874-29.513-748.873-56.987-965.264-59.487-14.677-2.225-30.697-7.859 22.646-12.589Z" opacity=".5"/><path fill="url(#i)" d="M758.555 411.685c-427.46-20.697-853.202-29.504-1012.641-31.321-123.507 29.417-301.293 102.172-23.209 76.356C.789 430.904 545.642 421.312 783.161 429.929c16.151-2.19 33.841-8.906-24.606-18.244Z" opacity=".5"/><path fill="#151278" d="M-62.04 499-187 590.105V731h754l-28.593-34.959-56.656-24.895-93.191 4.238-81.012-85.279-72.011 17.479-57.186 25.955-129.726-95.872-30.71 8.475L-62.04 499Z"/><path fill="#151278" d="M-127.95 700.253-191 731h625V499l-116.593 50.313-20.517-5.191-74.559 67.484-78.063-15.174L58.7 649.94l-26.021-3.594-86.069 58.699-74.56-4.792Z"/></g></g><defs><linearGradient id="b" x1="187.5" x2="187.5" y1="0" y2="812" gradientUnits="userSpaceOnUse"><stop stop-color="#190131"/><stop offset="1" stop-color="#282B96"/></linearGradient><linearGradient id="c" x1="187.5" x2="187.5" y1="701" y2="1055" gradientUnits="userSpaceOnUse"><stop stop-color="#3522A0"/><stop offset=".31" stop-color="#2C187F"/><stop offset="1" stop-color="#190334"/></linearGradient><linearGradient id="d" x1="77" x2="77" y1="744.558" y2="868.17" gradientUnits="userSpaceOnUse"><stop stop-color="#3931C1"/><stop offset="1" stop-color="#3931C1" stop-opacity="0"/></linearGradient><linearGradient id="f" x1="187.5" x2="187.5" y1="0" y2="731" gradientUnits="userSpaceOnUse"><stop stop-color="#1A0337"/><stop offset=".335" stop-color="#131381"/><stop offset="1" stop-color="#35B6FF"/></linearGradient><linearGradient id="g" x1="-12.913" x2="1516.18" y1="-89.476" y2="343.21" gradientUnits="userSpaceOnUse"><stop stop-color="#4531C1"/><stop offset="1" stop-color="#7931C1" stop-opacity="0"/></linearGradient><linearGradient id="h" x1="-111.232" x2="506.926" y1="479.191" y2="844.938" gradientUnits="userSpaceOnUse"><stop stop-color="#7966FF"/><stop offset="0" stop-color="#66C8FF"/><stop offset="1" stop-color="#3A88E1"/></linearGradient><linearGradient id="i" x1="698.404" x2="-42.559" y1="403.713" y2="741.322" gradientUnits="userSpaceOnUse"><stop stop-color="#2772CB"/><stop offset="1" stop-color="#45A0E8"/></linearGradient><clipPath id="a"><path fill="#fff" d="M0 0h375v812H0z"/></clipPath><clipPath id="e"><path fill="#fff" d="M0 0h375v731H0z"/></clipPath></defs></svg>