<svg xmlns="http://www.w3.org/2000/svg" width="1440" height="1024" fill="none" viewBox="0 0 1440 1024"><g clip-path="url(#a)"><path fill="url(#b)" d="M0 0h1440v1024H0z"/><path fill="url(#c)" d="M0 701h1440v354H0z"/><path fill="url(#d)" d="M1450.36 744.557c-629.71 1.22-1256.638 18.661-1491.388 27.229-181.19 49.005-441.365 133.32-32.543 78.537C335.25 795.54 1137.13 756.375 1486.97 751.735c23.73-4.132 49.63 1.601-36.61-7.178Z" opacity=".5"/><path fill="url(#e)" d="M-112.839 861.79c761.872 2.58 1520.379 39.488 1804.399 57.62 219.22 103.7 534 341.42 39.38 225.49-494.63-115.92-1464.811-223.842-1888.074-233.66-28.71-8.743-60.044-30.874 44.295-49.45Z" opacity=".25"/><g clip-path="url(#f)"><path fill="url(#g)" d="M0 0h1440v731H0z"/><path fill="url(#h)" d="M-120.952-76.32C640.004-38.836 1395.67 41.5 1678.38 76.982c213.15 139.757 514.21 451.689 26.62 284.234C1217.41 193.763 254.291 14.96-167.99-16.369c-28.188-12.243-58.243-41.374 47.038-59.952Z" opacity=".5"/><path fill="url(#i)" d="M-130.839 482.845c761.872.657 1520.379 10.053 1804.399 14.669 219.22 26.401 534 86.92 39.38 57.407-494.63-29.513-1464.811-56.987-1888.074-59.487-28.71-2.225-60.044-7.859 44.295-12.589Z" opacity=".5"/><path fill="url(#j)" d="M1788.33 411.685c-799.366-20.697-1595.522-29.504-1893.679-31.321-230.962 29.417-563.43 102.172-43.402 76.356 520.029-25.816 1538.931-35.408 1983.101-26.791 30.2-2.19 63.28-8.906-46.02-18.244Z" opacity=".5"/><path fill="#151278" d="M-62.04 499-187 590.105V731h754l-28.593-34.959-56.656-24.895-93.191 4.238-81.012-85.279-72.011 17.479-57.186 25.955-129.726-95.872-30.71 8.475L-62.04 499ZM937.05 700.253 874 731h625V499l-116.59 50.313-20.52-5.191-74.56 67.484-78.06-15.174-85.57 53.508-26.02-3.594-86.07 58.699-74.56-4.792Z"/><circle cx="437.5" cy="103.5" r="4.5" fill="#5DA9EF"/><circle cx="1043.04" cy="322.848" r="4.5" fill="#5DA9EF" transform="rotate(-15 1043.04 322.848)"/><circle cx="104.04" cy="53.848" r="4.5" fill="#5DA9EF" transform="rotate(-15 104.04 53.848)"/><circle cx="295.5" cy="125.5" r="1.5" fill="#5DA9EF"/><circle cx="911.573" cy="380.851" r="1.5" fill="#5DA9EF" transform="rotate(-15 911.573 380.851)"/><circle cx="107.5" cy="194.5" r="1.5" fill="#5DA9EF"/><circle cx="747.837" cy="496.158" r="1.5" fill="#5DA9EF" transform="rotate(-15 747.837 496.158)"/><circle cx="993.177" cy="435.691" r="1.5" fill="#5DA9EF" transform="rotate(-47.974 993.177 435.691)"/><circle cx="726.76" cy="230.9" r="1.5" fill="#5DA9EF" transform="rotate(-62.974 726.76 230.9)"/><circle cx="918.118" cy="416.5" r="1.5" fill="#5DA9EF" transform="rotate(-47.974 918.118 416.5)"/><circle cx="649.292" cy="231.79" r="1.5" fill="#5DA9EF" transform="rotate(-62.974 649.292 231.79)"/><circle cx="184.118" cy="560.5" r="1.5" fill="#5DA9EF" transform="rotate(-47.974 184.118 560.5)"/><circle cx="635.5" cy="191.5" r="1.5" fill="#5DA9EF"/><circle cx="1257.07" cy="356.603" r="1.5" fill="#5DA9EF" transform="rotate(-15 1257.07 356.603)"/><circle cx="318.069" cy="87.603" r="1.5" fill="#5DA9EF" transform="rotate(-15 318.069 87.603)"/><circle cx="447.5" cy="260.5" r="1.5" fill="#5DA9EF"/><circle cx="1093.33" cy="471.91" r="1.5" fill="#5DA9EF" transform="rotate(-15 1093.33 471.91)"/><circle cx="154.334" cy="202.91" r="1.5" fill="#5DA9EF" transform="rotate(-15 154.334 202.91)"/><circle cx="1269.82" cy="227.309" r="1.5" fill="#5DA9EF" transform="rotate(-47.974 1269.82 227.309)"/><circle cx="1194.76" cy="208.118" r="1.5" fill="#5DA9EF" transform="rotate(-47.974 1194.76 208.118)"/><circle cx="460.765" cy="352.118" r="1.5" fill="#5DA9EF" transform="rotate(-47.974 460.765 352.118)"/><circle cx="1129.86" cy="556.974" r="1.5" fill="#5DA9EF" transform="rotate(-62.974 1129.86 556.974)"/><circle cx="190.859" cy="287.974" r="1.5" fill="#5DA9EF" transform="rotate(-62.974 190.859 287.974)"/><circle cx="1201.5" cy="320.5" r="4.5" fill="#5DA9EF"/><circle cx="898.171" cy="65.716" r="4.5" fill="#5DA9EF" transform="rotate(-15 898.171 65.716)"/><circle cx="137.5" cy="316.5" r="4.5" fill="#5DA9EF"/><circle cx="808.391" cy="606.236" r="4.5" fill="#5DA9EF" transform="rotate(-15 808.391 606.236)"/><circle cx="582.5" cy="625.5" r="4.5" fill="#5DA9EF"/><circle cx="379.203" cy="520.533" r="4.5" fill="#5DA9EF" transform="rotate(-15 379.203 520.533)"/></g></g><defs><linearGradient id="b" x1="720" x2="720" y1="0" y2="1024" gradientUnits="userSpaceOnUse"><stop stop-color="#190131"/><stop offset="1" stop-color="#282B96"/></linearGradient><linearGradient id="c" x1="720" x2="720" y1="701" y2="1055" gradientUnits="userSpaceOnUse"><stop stop-color="#3522A0"/><stop offset=".31" stop-color="#2C187F"/><stop offset="1" stop-color="#190334"/></linearGradient><linearGradient id="d" x1="609.5" x2="609.5" y1="744.557" y2="868.17" gradientUnits="userSpaceOnUse"><stop stop-color="#3931C1"/><stop offset="1" stop-color="#3931C1" stop-opacity="0"/></linearGradient><linearGradient id="e" x1="904.5" x2="904.5" y1="861.79" y2="1123.37" gradientUnits="userSpaceOnUse"><stop stop-color="#3931C1"/><stop offset="1" stop-color="#3931C1" stop-opacity="0"/></linearGradient><linearGradient id="g" x1="720" x2="720" y1="0" y2="731" gradientUnits="userSpaceOnUse"><stop stop-color="#1A0337"/><stop offset=".335" stop-color="#131381"/><stop offset="1" stop-color="#35B6FF"/></linearGradient><linearGradient id="h" x1="-12.913" x2="1516.18" y1="-89.476" y2="343.21" gradientUnits="userSpaceOnUse"><stop stop-color="#4531C1"/><stop offset="1" stop-color="#7931C1" stop-opacity="0"/></linearGradient><linearGradient id="i" x1="-23.5" x2="674.295" y1="479.191" y2="1286.76" gradientUnits="userSpaceOnUse"><stop stop-color="#7966FF"/><stop offset="0" stop-color="#66C8FF"/><stop offset="1" stop-color="#3A88E1"/></linearGradient><linearGradient id="j" x1="1675.85" x2="706.384" y1="403.713" y2="1229.75" gradientUnits="userSpaceOnUse"><stop stop-color="#2772CB"/><stop offset="1" stop-color="#45A0E8"/></linearGradient><clipPath id="a"><path fill="#fff" d="M0 0h1440v1024H0z"/></clipPath><clipPath id="f"><path fill="#fff" d="M0 0h1440v731H0z"/></clipPath></defs></svg>